<svg width="4376" height="908" viewBox="0 0 4376 908" fill="none" xmlns="http://www.w3.org/2000/svg">
<path d="M592.261 246.517C581.309 246.517 572.29 253.604 568.425 263.267L451.821 595.041L333.284 263.911C329.419 253.604 321.044 246.517 309.448 246.517C298.496 246.517 289.477 253.604 285.612 263.911L167.075 595.685L49.827 263.267C45.9617 253.604 37.5868 246.517 25.9908 246.517C11.1737 246.517 0.866211 257.469 0.866211 271.642C0.866211 275.507 1.51043 280.661 4.08731 287.747L142.595 669.126C145.816 679.434 154.835 685.876 166.431 685.876C177.383 685.876 186.402 679.434 190.267 669.126L309.448 329.622L429.273 669.126C433.138 679.434 441.513 685.876 453.109 685.876C464.061 685.876 473.08 679.434 476.946 669.126L614.165 287.747C616.741 280.661 617.386 275.507 617.386 271.642C617.386 257.469 607.722 246.517 592.261 246.517Z" fill="white"/>
<path d="M769.039 685.876C783.212 685.876 794.164 674.28 794.164 659.463V272.93C794.164 258.113 783.212 246.517 769.039 246.517C754.222 246.517 743.915 258.113 743.915 272.93V659.463C743.915 674.28 754.222 685.876 769.039 685.876Z" fill="white"/>
<path d="M967.968 685.876C982.14 685.876 993.092 674.28 993.092 659.463V490.677H1151.57C1164.46 490.677 1174.76 480.369 1174.76 467.485C1174.76 455.245 1164.46 444.937 1151.57 444.937H993.092V298.699H1188.29C1201.18 298.699 1211.48 289.036 1211.48 276.151C1211.48 263.911 1201.18 253.604 1188.29 253.604H969.256C953.795 253.604 942.843 265.199 942.843 280.017V659.463C942.843 674.28 953.151 685.876 967.968 685.876Z" fill="white"/>
<path d="M1338.02 685.876C1352.19 685.876 1363.14 674.28 1363.14 659.463V272.93C1363.14 258.113 1352.19 246.517 1338.02 246.517C1323.2 246.517 1312.89 258.113 1312.89 272.93V659.463C1312.89 674.28 1323.2 685.876 1338.02 685.876Z" fill="white"/>
<path d="M2488.73 685.506C2503.55 685.506 2513.85 673.91 2513.85 659.093V298.329H2643.34C2656.23 298.329 2666.53 288.666 2666.53 275.782C2666.53 263.541 2656.23 253.234 2643.34 253.234H2335.4C2321.87 253.234 2311.57 263.541 2311.57 275.782C2311.57 288.666 2321.87 298.329 2335.4 298.329H2463.6V659.093C2463.6 673.91 2474.56 685.506 2488.73 685.506Z" fill="white"/>
<path d="M2912.38 246.147C2788.69 246.147 2692.06 342.781 2692.06 465.827C2692.06 588.873 2788.69 685.506 2912.38 685.506C3036.07 685.506 3133.35 588.229 3133.35 465.827C3133.35 343.425 3036.07 246.147 2912.38 246.147ZM2913.02 292.531C3009.01 292.531 3081.16 366.617 3081.16 465.183C3081.16 564.393 3009.01 639.122 2913.02 639.122C2816.39 639.122 2744.24 565.037 2744.24 465.183C2744.24 365.973 2816.39 292.531 2913.02 292.531Z" fill="white"/>
<path d="M3482.68 246.147C3467.86 246.147 3457.55 257.743 3457.55 272.56V462.606C3431.78 473.557 3397.64 480.644 3368.65 480.644C3291.34 480.644 3245.6 432.972 3245.6 352.444V272.56C3245.6 257.743 3235.29 246.147 3220.48 246.147C3206.3 246.147 3195.35 257.743 3195.35 272.56V356.309C3195.35 461.961 3260.42 527.028 3366.72 527.028C3397.64 527.028 3430.49 521.23 3457.55 511.566V659.093C3457.55 673.91 3467.86 685.506 3482.68 685.506C3496.85 685.506 3507.8 673.91 3507.8 659.093V272.56C3507.8 257.743 3496.85 246.147 3482.68 246.147Z" fill="white"/>
<path d="M3649.56 246.147C3634.74 246.147 3624.43 257.743 3624.43 272.56V659.093C3624.43 673.91 3634.74 685.506 3649.56 685.506C3663.73 685.506 3674.68 673.91 3674.68 659.093V272.56C3674.68 257.743 3663.73 246.147 3649.56 246.147ZM3933.02 644.276L3744.26 450.365L3913.05 288.666C3920.78 281.58 3924 275.782 3924 268.695C3924 256.455 3913.69 246.147 3900.81 246.147C3894.36 246.147 3889.21 249.369 3881.48 256.455L3697.23 432.327C3692.08 438.125 3688.86 443.923 3688.86 450.365C3688.86 456.808 3692.08 462.606 3696.59 467.759L3899.52 675.199C3906.6 682.285 3913.05 685.506 3919.49 685.506C3932.37 685.506 3942.68 675.199 3942.68 662.958C3942.68 655.228 3940.1 650.074 3933.02 644.276Z" fill="white"/>
<path d="M4371.04 644.92L4208.05 263.541C4202.9 251.945 4195.17 246.147 4184.22 246.147C4173.27 246.147 4165.53 251.945 4160.38 263.541L3997.39 644.92C3994.82 651.362 3993.53 656.516 3993.53 661.026C3993.53 673.91 4004.48 685.506 4018.01 685.506C4028.96 685.506 4037.33 679.064 4041.84 668.756L4074.06 592.094H4292.45L4326.59 668.756C4331.74 679.064 4339.47 685.506 4351.07 685.506C4363.95 685.506 4375.55 673.91 4375.55 661.026C4375.55 656.516 4374.26 651.362 4371.04 644.92ZM4184.22 321.521L4273.12 546.999H4092.74L4184.22 321.521Z" fill="white"/>
<path fill-rule="evenodd" clip-rule="evenodd" d="M2140.64 619.571C2048.96 778.377 1845.89 832.788 1687.09 741.101C1528.28 649.414 1473.87 446.35 1565.56 287.544C1657.24 128.738 1860.31 74.3268 2019.11 166.013C2177.92 257.7 2232.33 460.765 2140.64 619.571ZM2065.05 639.823C1988.65 772.161 1819.42 817.504 1687.09 741.098C1554.75 664.692 1509.41 495.472 1585.81 363.134C1662.22 230.795 1831.44 185.453 1963.78 261.858C2096.11 338.264 2141.46 507.484 2065.05 639.823Z" fill="#FF1300"/>
<path fill-rule="evenodd" clip-rule="evenodd" d="M1989.46 660.073C1928.33 765.944 1792.96 802.218 1687.09 741.093C1581.22 679.969 1544.94 544.593 1606.07 438.722C1667.19 332.851 1802.57 296.577 1908.44 357.702C2014.31 418.826 2050.58 554.202 1989.46 660.073ZM1913.87 680.325C1868.02 759.728 1766.49 786.934 1687.09 741.09C1607.69 695.247 1580.48 593.715 1626.32 514.312C1672.17 434.909 1773.7 407.703 1853.1 453.547C1932.5 499.39 1959.71 600.922 1913.87 680.325Z" fill="#FF1300"/>
<path fill-rule="evenodd" clip-rule="evenodd" d="M1685.02 739.865C1660.16 724.049 1651.96 691.292 1666.83 665.526C1682.11 639.058 1715.96 629.99 1742.43 645.271C1768.89 660.552 1777.96 694.396 1762.68 720.864C1747.81 746.621 1715.36 755.901 1689.24 742.297C1741.84 771.156 1808.12 752.801 1838.27 700.578C1868.84 647.643 1850.7 579.955 1797.76 549.393C1744.83 518.83 1677.14 536.967 1646.58 589.903C1616.42 642.143 1633.69 708.751 1685.02 739.865Z" fill="#FF1300"/>
</svg>
