<svg width="4375" height="908" viewBox="0 0 4375 908" fill="none" xmlns="http://www.w3.org/2000/svg">
<path d="M591.395 246.517C580.443 246.517 571.424 253.604 567.559 263.267L450.955 595.041L332.418 263.911C328.553 253.604 320.178 246.517 308.582 246.517C297.63 246.517 288.611 253.604 284.746 263.911L166.209 595.685L48.9608 263.267C45.0955 253.604 36.7206 246.517 25.1246 246.517C10.3075 246.517 0 257.469 0 271.642C0 275.507 0.644219 280.661 3.2211 287.747L141.729 669.126C144.95 679.434 153.969 685.876 165.565 685.876C176.517 685.876 185.536 679.434 189.401 669.126L308.582 329.622L428.407 669.126C432.272 679.434 440.647 685.876 452.243 685.876C463.195 685.876 472.214 679.434 476.079 669.126L613.298 287.747C615.875 280.661 616.519 275.507 616.519 271.642C616.519 257.469 606.856 246.517 591.395 246.517Z" fill="#0A1E36"/>
<path d="M768.173 685.876C782.346 685.876 793.298 674.28 793.298 659.463V272.93C793.298 258.113 782.346 246.517 768.173 246.517C753.356 246.517 743.048 258.113 743.048 272.93V659.463C743.048 674.28 753.356 685.876 768.173 685.876Z" fill="#0A1E36"/>
<path d="M967.101 685.876C981.274 685.876 992.226 674.28 992.226 659.463V490.677H1150.7C1163.59 490.677 1173.9 480.369 1173.9 467.485C1173.9 455.245 1163.59 444.937 1150.7 444.937H992.226V298.699H1187.43C1200.31 298.699 1210.62 289.036 1210.62 276.151C1210.62 263.911 1200.31 253.604 1187.43 253.604H968.39C952.929 253.604 941.977 265.199 941.977 280.017V659.463C941.977 674.28 952.284 685.876 967.101 685.876Z" fill="#0A1E36"/>
<path d="M1337.15 685.876C1351.32 685.876 1362.28 674.28 1362.28 659.463V272.93C1362.28 258.113 1351.32 246.517 1337.15 246.517C1322.33 246.517 1312.03 258.113 1312.03 272.93V659.463C1312.03 674.28 1322.33 685.876 1337.15 685.876Z" fill="#0A1E36"/>
<path d="M2487.86 685.506C2502.68 685.506 2512.99 673.91 2512.99 659.093V298.329H2642.47C2655.36 298.329 2665.67 288.666 2665.67 275.782C2665.67 263.541 2655.36 253.234 2642.47 253.234H2334.54C2321.01 253.234 2310.7 263.541 2310.7 275.782C2310.7 288.666 2321.01 298.329 2334.54 298.329H2462.74V659.093C2462.74 673.91 2473.69 685.506 2487.86 685.506Z" fill="#0A1E36"/>
<path d="M2911.51 246.147C2787.82 246.147 2691.19 342.781 2691.19 465.827C2691.19 588.873 2787.82 685.506 2911.51 685.506C3035.2 685.506 3132.48 588.229 3132.48 465.827C3132.48 343.425 3035.2 246.147 2911.51 246.147ZM2912.16 292.531C3008.15 292.531 3080.3 366.617 3080.3 465.183C3080.3 564.393 3008.15 639.122 2912.16 639.122C2815.52 639.122 2743.37 565.037 2743.37 465.183C2743.37 365.973 2815.52 292.531 2912.16 292.531Z" fill="#0A1E36"/>
<path d="M3481.81 246.147C3466.99 246.147 3456.68 257.743 3456.68 272.56V462.606C3430.92 473.557 3396.77 480.644 3367.78 480.644C3290.48 480.644 3244.74 432.972 3244.74 352.444V272.56C3244.74 257.743 3234.43 246.147 3219.61 246.147C3205.44 246.147 3194.49 257.743 3194.49 272.56V356.309C3194.49 461.961 3259.55 527.028 3365.85 527.028C3396.77 527.028 3429.63 521.23 3456.68 511.566V659.093C3456.68 673.91 3466.99 685.506 3481.81 685.506C3495.98 685.506 3506.93 673.91 3506.93 659.093V272.56C3506.93 257.743 3495.98 246.147 3481.81 246.147Z" fill="#0A1E36"/>
<path d="M3648.69 246.147C3633.88 246.147 3623.57 257.743 3623.57 272.56V659.093C3623.57 673.91 3633.88 685.506 3648.69 685.506C3662.87 685.506 3673.82 673.91 3673.82 659.093V272.56C3673.82 257.743 3662.87 246.147 3648.69 246.147ZM3932.15 644.276L3743.39 450.365L3912.18 288.666C3919.91 281.58 3923.13 275.782 3923.13 268.695C3923.13 256.455 3912.82 246.147 3899.94 246.147C3893.5 246.147 3888.34 249.369 3880.61 256.455L3696.37 432.327C3691.21 438.125 3687.99 443.923 3687.99 450.365C3687.99 456.808 3691.21 462.606 3695.72 467.759L3898.65 675.199C3905.74 682.285 3912.18 685.506 3918.62 685.506C3931.51 685.506 3941.81 675.199 3941.81 662.958C3941.81 655.228 3939.24 650.074 3932.15 644.276Z" fill="#0A1E36"/>
<path d="M4370.17 644.92L4207.19 263.541C4202.03 251.945 4194.3 246.147 4183.35 246.147C4172.4 246.147 4164.67 251.945 4159.51 263.541L3996.53 644.92C3993.95 651.362 3992.66 656.516 3992.66 661.026C3992.66 673.91 4003.61 685.506 4017.14 685.506C4028.09 685.506 4036.47 679.064 4040.98 668.756L4073.19 592.094H4291.58L4325.72 668.756C4330.88 679.064 4338.61 685.506 4350.2 685.506C4363.09 685.506 4374.68 673.91 4374.68 661.026C4374.68 656.516 4373.4 651.362 4370.17 644.92ZM4183.35 321.521L4272.25 546.999H4091.87L4183.35 321.521Z" fill="#0A1E36"/>
<path fill-rule="evenodd" clip-rule="evenodd" d="M2139.78 619.571C2048.09 778.377 1845.03 832.788 1686.22 741.101C1527.41 649.414 1473 446.35 1564.69 287.544C1656.38 128.738 1859.44 74.3268 2018.25 166.013C2177.05 257.7 2231.46 460.765 2139.78 619.571ZM2064.18 639.823C1987.78 772.161 1818.56 817.504 1686.22 741.098C1553.88 664.692 1508.54 495.472 1584.95 363.134C1661.35 230.795 1830.57 185.453 1962.91 261.858C2095.25 338.264 2140.59 507.484 2064.18 639.823Z" fill="#FF1300"/>
<path fill-rule="evenodd" clip-rule="evenodd" d="M1988.59 660.073C1927.47 765.944 1792.09 802.218 1686.22 741.093C1580.35 679.969 1544.08 544.593 1605.2 438.722C1666.33 332.851 1801.7 296.577 1907.57 357.702C2013.44 418.826 2049.72 554.202 1988.59 660.073ZM1913 680.325C1867.16 759.728 1765.62 786.934 1686.22 741.09C1606.82 695.247 1579.61 593.715 1625.46 514.312C1671.3 434.909 1772.83 407.703 1852.23 453.547C1931.64 499.39 1958.84 600.922 1913 680.325Z" fill="#FF1300"/>
<path fill-rule="evenodd" clip-rule="evenodd" d="M1684.15 739.865C1659.29 724.049 1651.09 691.292 1665.97 665.526C1681.25 639.058 1715.09 629.99 1741.56 645.271C1768.03 660.552 1777.1 694.396 1761.81 720.864C1746.94 746.621 1714.49 755.901 1688.37 742.297C1740.97 771.156 1807.26 752.801 1837.41 700.578C1867.97 647.643 1849.83 579.955 1796.9 549.393C1743.96 518.83 1676.27 536.967 1645.71 589.903C1615.55 642.143 1632.82 708.751 1684.15 739.865Z" fill="#FF1300"/>
</svg>
