<svg xmlns="http://www.w3.org/2000/svg" viewBox="0 0 24 24" aria-hidden="true">
  <defs>
    <linearGradient id="theme-comfort-sun" x1="8" y1="5" x2="8" y2="14" gradientUnits="userSpaceOnUse">
      <stop offset="0%" stop-color="#F5D78A" />
      <stop offset="100%" stop-color="#D4A84A" />
    </linearGradient>
    <linearGradient id="theme-comfort-cloud" x1="12" y1="10" x2="12" y2="20" gradientUnits="userSpaceOnUse">
      <stop offset="0%" stop-color="#F4F0E8" />
      <stop offset="55%" stop-color="#E0DAD0" />
      <stop offset="100%" stop-color="#C8C2B6" />
    </linearGradient>
  </defs>
  <g stroke="#C99A3D" stroke-width="1.35" stroke-linecap="round" fill="none" opacity="0.9">
    <line x1="8" y1="2.2" x2="8" y2="4.2" />
    <line x1="8" y1="12.8" x2="8" y2="14.6" />
    <line x1="2.8" y1="8" x2="4.5" y2="8" />
    <line x1="11.5" y1="8" x2="13.2" y2="8" />
    <line x1="4.1" y1="4.1" x2="5.3" y2="5.3" />
    <line x1="10.7" y1="10.7" x2="11.9" y2="11.9" />
    <line x1="4.1" y1="11.9" x2="5.3" y2="10.7" />
    <line x1="10.7" y1="5.3" x2="11.9" y2="4.1" />
  </g>
  <circle cx="8" cy="8" r="3.35" fill="url(#theme-comfort-sun)" />
  <path
    fill="url(#theme-comfort-cloud)"
    stroke="#B8B2A6"
    stroke-width="1"
    stroke-linejoin="round"
    d="M7.2 13.8c0-2.1 1.6-3.8 3.7-4.1.5-2.4 2.6-4.1 5.1-4.1 2.9 0 5.2 2.3 5.2 5.2 0 .3 0 .6-.05.9 1.9.4 3.3 2.1 3.3 4.1 0 2.3-1.9 4.2-4.2 4.2H8.6c-2 0-3.6-1.5-3.8-3.4-.1-.7-.1-1.2 0-1.8Z"
  />
</svg>
