<svg width="4375" height="908" viewBox="0 0 4375 908" fill="none" xmlns="http://www.w3.org/2000/svg">
<path d="M591.395 247.403C580.443 247.403 571.424 254.489 567.559 264.153L450.955 595.926L332.418 264.797C328.553 254.489 320.178 247.403 308.582 247.403C297.63 247.403 288.611 254.489 284.746 264.797L166.209 596.571L48.9608 264.153C45.0955 254.489 36.7206 247.403 25.1246 247.403C10.3075 247.403 0 258.355 0 272.527C0 276.393 0.644219 281.547 3.2211 288.633L141.729 670.012C144.95 680.319 153.969 686.761 165.565 686.761C176.517 686.761 185.536 680.319 189.401 670.012L308.582 330.507L428.407 670.012C432.272 680.319 440.647 686.761 452.243 686.761C463.195 686.761 472.214 680.319 476.079 670.012L613.298 288.633C615.875 281.547 616.519 276.393 616.519 272.527C616.519 258.355 606.856 247.403 591.395 247.403Z" fill="white"/>
<path d="M768.173 686.761C782.346 686.761 793.298 675.166 793.298 660.348V273.816C793.298 258.999 782.346 247.403 768.173 247.403C753.356 247.403 743.048 258.999 743.048 273.816V660.348C743.048 675.166 753.356 686.761 768.173 686.761Z" fill="white"/>
<path d="M967.101 686.761C981.274 686.761 992.226 675.166 992.226 660.348V491.563H1150.7C1163.59 491.563 1173.9 481.255 1173.9 468.371C1173.9 456.13 1163.59 445.823 1150.7 445.823H992.226V299.585H1187.43C1200.31 299.585 1210.62 289.921 1210.62 277.037C1210.62 264.797 1200.31 254.489 1187.43 254.489H968.39C952.929 254.489 941.977 266.085 941.977 280.902V660.348C941.977 675.166 952.284 686.761 967.101 686.761Z" fill="white"/>
<path d="M1337.15 686.761C1351.32 686.761 1362.28 675.166 1362.28 660.348V273.816C1362.28 258.999 1351.32 247.403 1337.15 247.403C1322.33 247.403 1312.03 258.999 1312.03 273.816V660.348C1312.03 675.166 1322.33 686.761 1337.15 686.761Z" fill="white"/>
<path d="M2487.86 686.392C2502.68 686.392 2512.99 674.796 2512.99 659.979V299.215H2642.47C2655.36 299.215 2665.67 289.552 2665.67 276.667C2665.67 264.427 2655.36 254.12 2642.47 254.12H2334.54C2321.01 254.12 2310.7 264.427 2310.7 276.667C2310.7 289.552 2321.01 299.215 2334.54 299.215H2462.74V659.979C2462.74 674.796 2473.69 686.392 2487.86 686.392Z" fill="white"/>
<path d="M2911.51 247.033C2787.82 247.033 2691.19 343.666 2691.19 466.713C2691.19 589.759 2787.82 686.392 2911.51 686.392C3035.2 686.392 3132.48 589.115 3132.48 466.713C3132.48 344.311 3035.2 247.033 2911.51 247.033ZM2912.16 293.417C3008.15 293.417 3080.3 367.503 3080.3 466.068C3080.3 565.278 3008.15 640.008 2912.16 640.008C2815.52 640.008 2743.37 565.923 2743.37 466.068C2743.37 366.858 2815.52 293.417 2912.16 293.417Z" fill="white"/>
<path d="M3481.81 247.033C3466.99 247.033 3456.68 258.629 3456.68 273.446V463.491C3430.92 474.443 3396.77 481.53 3367.78 481.53C3290.48 481.53 3244.74 433.857 3244.74 353.33V273.446C3244.74 258.629 3234.43 247.033 3219.61 247.033C3205.44 247.033 3194.49 258.629 3194.49 273.446V357.195C3194.49 462.847 3259.55 527.914 3365.85 527.914C3396.77 527.914 3429.63 522.116 3456.68 512.452V659.979C3456.68 674.796 3466.99 686.392 3481.81 686.392C3495.98 686.392 3506.93 674.796 3506.93 659.979V273.446C3506.93 258.629 3495.98 247.033 3481.81 247.033Z" fill="white"/>
<path d="M3648.69 247.033C3633.88 247.033 3623.57 258.629 3623.57 273.446V659.979C3623.57 674.796 3633.88 686.392 3648.69 686.392C3662.87 686.392 3673.82 674.796 3673.82 659.979V273.446C3673.82 258.629 3662.87 247.033 3648.69 247.033ZM3932.15 645.162L3743.39 451.251L3912.18 289.552C3919.91 282.465 3923.13 276.667 3923.13 269.581C3923.13 257.341 3912.82 247.033 3899.94 247.033C3893.5 247.033 3888.34 250.254 3880.61 257.341L3696.37 433.213C3691.21 439.011 3687.99 444.809 3687.99 451.251C3687.99 457.693 3691.21 463.491 3695.72 468.645L3898.65 676.084C3905.74 683.171 3912.18 686.392 3918.62 686.392C3931.51 686.392 3941.81 676.084 3941.81 663.844C3941.81 656.114 3939.24 650.96 3932.15 645.162Z" fill="white"/>
<path d="M4370.17 645.806L4207.19 264.427C4202.03 252.831 4194.3 247.033 4183.35 247.033C4172.4 247.033 4164.67 252.831 4159.51 264.427L3996.53 645.806C3993.95 652.248 3992.66 657.402 3992.66 661.912C3992.66 674.796 4003.61 686.392 4017.14 686.392C4028.09 686.392 4036.47 679.95 4040.98 669.642L4073.19 592.98H4291.58L4325.72 669.642C4330.88 679.95 4338.61 686.392 4350.2 686.392C4363.09 686.392 4374.68 674.796 4374.68 661.912C4374.68 657.402 4373.4 652.248 4370.17 645.806ZM4183.35 322.407L4272.25 547.884H4091.87L4183.35 322.407Z" fill="white"/>
<path fill-rule="evenodd" clip-rule="evenodd" d="M2139.78 620.457C2048.09 779.263 1845.03 833.674 1686.22 741.987C1527.41 650.3 1473 447.236 1564.69 288.43C1656.38 129.623 1859.44 75.2125 2018.25 166.899C2177.05 258.586 2231.46 461.65 2139.78 620.457ZM2064.18 640.709C1987.78 773.047 1818.56 818.389 1686.22 741.984C1553.88 665.578 1508.54 496.358 1584.95 364.019C1661.35 231.681 1830.57 186.339 1962.91 262.744C2095.25 339.15 2140.59 508.37 2064.18 640.709Z" fill="white"/>
<path fill-rule="evenodd" clip-rule="evenodd" d="M1988.59 660.959C1927.47 766.83 1792.09 803.104 1686.22 741.979C1580.35 680.855 1544.08 545.478 1605.2 439.608C1666.33 333.737 1801.7 297.463 1907.57 358.587C2013.44 419.712 2049.72 555.088 1988.59 660.959ZM1913 681.211C1867.16 760.614 1765.62 787.819 1686.22 741.976C1606.82 696.133 1579.61 594.6 1625.46 515.197C1671.3 435.794 1772.83 408.589 1852.23 454.432C1931.64 500.276 1958.84 601.808 1913 681.211Z" fill="white"/>
<path fill-rule="evenodd" clip-rule="evenodd" d="M1684.15 740.751C1659.29 724.935 1651.09 692.178 1665.97 666.412C1681.25 639.944 1715.09 630.876 1741.56 646.157C1768.03 661.438 1777.1 695.282 1761.81 721.75C1746.94 747.507 1714.49 756.786 1688.37 743.183C1740.97 772.041 1807.26 753.686 1837.41 701.464C1867.97 648.529 1849.83 580.841 1796.9 550.278C1743.96 519.716 1676.27 537.853 1645.71 590.788C1615.55 643.029 1632.82 709.637 1684.15 740.751Z" fill="white"/>
</svg>
